<svg xmlns="http://www.w3.org/2000/svg" viewBox="0 0 25 25" shape-rendering="crispEdges" preserveAspectRatio="xMidYMid meet"><rect width="25" height="25" fill="#FAF6EE"></rect><path d="M0 0h1v1h-1zM1 0h1v1h-1zM2 0h1v1h-1zM3 0h1v1h-1zM4 0h1v1h-1zM5 0h1v1h-1zM6 0h1v1h-1zM9 0h1v1h-1zM12 0h1v1h-1zM14 0h1v1h-1zM15 0h1v1h-1zM16 0h1v1h-1zM18 0h1v1h-1zM19 0h1v1h-1zM20 0h1v1h-1zM21 0h1v1h-1zM22 0h1v1h-1zM23 0h1v1h-1zM24 0h1v1h-1zM0 1h1v1h-1zM6 1h1v1h-1zM8 1h1v1h-1zM9 1h1v1h-1zM13 1h1v1h-1zM14 1h1v1h-1zM16 1h1v1h-1zM18 1h1v1h-1zM24 1h1v1h-1zM0 2h1v1h-1zM2 2h1v1h-1zM3 2h1v1h-1zM4 2h1v1h-1zM6 2h1v1h-1zM8 2h1v1h-1zM9 2h1v1h-1zM13 2h1v1h-1zM16 2h1v1h-1zM18 2h1v1h-1zM20 2h1v1h-1zM21 2h1v1h-1zM22 2h1v1h-1zM24 2h1v1h-1zM0 3h1v1h-1zM2 3h1v1h-1zM3 3h1v1h-1zM4 3h1v1h-1zM6 3h1v1h-1zM8 3h1v1h-1zM11 3h1v1h-1zM12 3h1v1h-1zM15 3h1v1h-1zM16 3h1v1h-1zM18 3h1v1h-1zM20 3h1v1h-1zM21 3h1v1h-1zM22 3h1v1h-1zM24 3h1v1h-1zM0 4h1v1h-1zM2 4h1v1h-1zM3 4h1v1h-1zM4 4h1v1h-1zM6 4h1v1h-1zM9 4h1v1h-1zM10 4h1v1h-1zM12 4h1v1h-1zM18 4h1v1h-1zM20 4h1v1h-1zM21 4h1v1h-1zM22 4h1v1h-1zM24 4h1v1h-1zM0 5h1v1h-1zM6 5h1v1h-1zM9 5h1v1h-1zM16 5h1v1h-1zM18 5h1v1h-1zM24 5h1v1h-1zM0 6h1v1h-1zM1 6h1v1h-1zM2 6h1v1h-1zM3 6h1v1h-1zM4 6h1v1h-1zM5 6h1v1h-1zM6 6h1v1h-1zM8 6h1v1h-1zM10 6h1v1h-1zM12 6h1v1h-1zM14 6h1v1h-1zM16 6h1v1h-1zM18 6h1v1h-1zM19 6h1v1h-1zM20 6h1v1h-1zM21 6h1v1h-1zM22 6h1v1h-1zM23 6h1v1h-1zM24 6h1v1h-1zM8 7h1v1h-1zM10 7h1v1h-1zM14 7h1v1h-1zM0 8h1v1h-1zM6 8h1v1h-1zM8 8h1v1h-1zM9 8h1v1h-1zM11 8h1v1h-1zM17 8h1v1h-1zM18 8h1v1h-1zM21 8h1v1h-1zM22 8h1v1h-1zM23 8h1v1h-1zM0 9h1v1h-1zM1 9h1v1h-1zM2 9h1v1h-1zM4 9h1v1h-1zM10 9h1v1h-1zM12 9h1v1h-1zM13 9h1v1h-1zM15 9h1v1h-1zM19 9h1v1h-1zM20 9h1v1h-1zM21 9h1v1h-1zM22 9h1v1h-1zM23 9h1v1h-1zM0 10h1v1h-1zM3 10h1v1h-1zM6 10h1v1h-1zM8 10h1v1h-1zM9 10h1v1h-1zM11 10h1v1h-1zM13 10h1v1h-1zM14 10h1v1h-1zM15 10h1v1h-1zM16 10h1v1h-1zM19 10h1v1h-1zM21 10h1v1h-1zM23 10h1v1h-1zM24 10h1v1h-1zM2 11h1v1h-1zM4 11h1v1h-1zM7 11h1v1h-1zM9 11h1v1h-1zM11 11h1v1h-1zM13 11h1v1h-1zM18 11h1v1h-1zM19 11h1v1h-1zM20 11h1v1h-1zM21 11h1v1h-1zM24 11h1v1h-1zM6 12h1v1h-1zM7 12h1v1h-1zM9 12h1v1h-1zM10 12h1v1h-1zM12 12h1v1h-1zM13 12h1v1h-1zM15 12h1v1h-1zM16 12h1v1h-1zM18 12h1v1h-1zM19 12h1v1h-1zM24 12h1v1h-1zM0 13h1v1h-1zM2 13h1v1h-1zM3 13h1v1h-1zM4 13h1v1h-1zM7 13h1v1h-1zM8 13h1v1h-1zM15 13h1v1h-1zM16 13h1v1h-1zM19 13h1v1h-1zM23 13h1v1h-1zM0 14h1v1h-1zM2 14h1v1h-1zM6 14h1v1h-1zM8 14h1v1h-1zM10 14h1v1h-1zM11 14h1v1h-1zM12 14h1v1h-1zM15 14h1v1h-1zM17 14h1v1h-1zM19 14h1v1h-1zM20 14h1v1h-1zM21 14h1v1h-1zM23 14h1v1h-1zM24 14h1v1h-1zM0 15h1v1h-1zM2 15h1v1h-1zM3 15h1v1h-1zM4 15h1v1h-1zM8 15h1v1h-1zM10 15h1v1h-1zM11 15h1v1h-1zM15 15h1v1h-1zM18 15h1v1h-1zM19 15h1v1h-1zM21 15h1v1h-1zM22 15h1v1h-1zM24 15h1v1h-1zM0 16h1v1h-1zM3 16h1v1h-1zM4 16h1v1h-1zM5 16h1v1h-1zM6 16h1v1h-1zM7 16h1v1h-1zM9 16h1v1h-1zM11 16h1v1h-1zM16 16h1v1h-1zM17 16h1v1h-1zM18 16h1v1h-1zM19 16h1v1h-1zM20 16h1v1h-1zM22 16h1v1h-1zM8 17h1v1h-1zM9 17h1v1h-1zM12 17h1v1h-1zM13 17h1v1h-1zM14 17h1v1h-1zM16 17h1v1h-1zM20 17h1v1h-1zM0 18h1v1h-1zM1 18h1v1h-1zM2 18h1v1h-1zM3 18h1v1h-1zM4 18h1v1h-1zM5 18h1v1h-1zM6 18h1v1h-1zM10 18h1v1h-1zM11 18h1v1h-1zM16 18h1v1h-1zM18 18h1v1h-1zM20 18h1v1h-1zM24 18h1v1h-1zM0 19h1v1h-1zM6 19h1v1h-1zM9 19h1v1h-1zM12 19h1v1h-1zM13 19h1v1h-1zM16 19h1v1h-1zM20 19h1v1h-1zM23 19h1v1h-1zM24 19h1v1h-1zM0 20h1v1h-1zM2 20h1v1h-1zM3 20h1v1h-1zM4 20h1v1h-1zM6 20h1v1h-1zM9 20h1v1h-1zM12 20h1v1h-1zM14 20h1v1h-1zM15 20h1v1h-1zM16 20h1v1h-1zM17 20h1v1h-1zM18 20h1v1h-1zM19 20h1v1h-1zM20 20h1v1h-1zM22 20h1v1h-1zM24 20h1v1h-1zM0 21h1v1h-1zM2 21h1v1h-1zM3 21h1v1h-1zM4 21h1v1h-1zM6 21h1v1h-1zM10 21h1v1h-1zM14 21h1v1h-1zM18 21h1v1h-1zM23 21h1v1h-1zM24 21h1v1h-1zM0 22h1v1h-1zM2 22h1v1h-1zM3 22h1v1h-1zM4 22h1v1h-1zM6 22h1v1h-1zM11 22h1v1h-1zM12 22h1v1h-1zM15 22h1v1h-1zM17 22h1v1h-1zM21 22h1v1h-1zM22 22h1v1h-1zM24 22h1v1h-1zM0 23h1v1h-1zM6 23h1v1h-1zM9 23h1v1h-1zM10 23h1v1h-1zM11 23h1v1h-1zM14 23h1v1h-1zM15 23h1v1h-1zM16 23h1v1h-1zM17 23h1v1h-1zM18 23h1v1h-1zM19 23h1v1h-1zM20 23h1v1h-1zM24 23h1v1h-1zM0 24h1v1h-1zM1 24h1v1h-1zM2 24h1v1h-1zM3 24h1v1h-1zM4 24h1v1h-1zM5 24h1v1h-1zM6 24h1v1h-1zM8 24h1v1h-1zM10 24h1v1h-1zM13 24h1v1h-1zM14 24h1v1h-1zM15 24h1v1h-1zM16 24h1v1h-1zM17 24h1v1h-1zM18 24h1v1h-1zM21 24h1v1h-1zM24 24h1v1h-1z" fill="#0E1116"></path></svg>