<?xml version="1.0" encoding="UTF-8"?>
<svg xmlns="http://www.w3.org/2000/svg" viewBox="0 0 760 240" preserveAspectRatio="xMidYMid meet">

  <g><rect x="20" y="20" width="200" height="200" rx="20" fill="none" stroke="#0E1116" stroke-width="6"></rect>
  <path d="M41.380859375 60.376953125V57.08203125L49.8984375 43.62890625H55.134765625V57.013671875H57.677734375V60.376953125H55.134765625V64.0H51.12890625V60.376953125ZM51.2109375 57.013671875V48.22265625H51.046875L45.591796875 56.849609375V57.013671875Z M60.130859375 64.0V60.9921875L67.349609375 54.224609375Q68.73046875 52.87109375 69.4755859375 51.8662109375Q70.220703125 50.861328125 70.220703125 49.630859375Q70.220703125 48.263671875 69.3251953125 47.4775390625Q68.4296875 46.69140625 67.0625 46.69140625Q65.640625 46.69140625 64.7861328125 47.5390625Q63.931640625 48.38671875 63.931640625 49.876953125H59.939453125Q59.939453125 47.89453125 60.8486328125 46.4248046875Q61.7578125 44.955078125 63.37109375 44.1552734375Q64.984375 43.35546875 67.08984375 43.35546875Q69.25 43.35546875 70.86328125 44.1279296875Q72.4765625 44.900390625 73.3720703125 46.25390625Q74.267578125 47.607421875 74.267578125 49.37109375Q74.267578125 50.505859375 73.8232421875 51.61328125Q73.37890625 52.720703125 72.2373046875 54.0947265625Q71.095703125 55.46875 69.00390625 57.3828125L65.927734375 60.41796875V60.568359375H74.541015625V64.0Z" fill="#0E1116"></path>
  <circle cx="200" cy="48" r="6" fill="#F5C518"></circle>
  <path d="M37.23828125 148.0V89.796875H58.72265625L66.14453125 112.453125Q66.73046875 114.4453125 67.4921875 117.6484375Q68.25390625 120.8515625 69.03515625 124.5625Q69.81640625 128.2734375 70.51953125 131.75Q71.18359375 128.2734375 71.9453125 124.58203125Q72.70703125 120.890625 73.46875 117.66796875Q74.23046875 114.4453125 74.81640625 112.453125L82.12109375 89.796875H103.64453125V148.0H89.77734375V122.921875Q89.77734375 120.6953125 89.875 117.08203125Q89.97265625 113.46875 90.08984375 109.25Q90.20703125 105.03125 90.28515625 101.125Q89.30859375 105.265625 88.234375 109.4453125Q87.16015625 113.625 86.18359375 117.16015625Q85.20703125 120.6953125 84.50390625 122.921875L76.22265625 148.0H64.69921875L56.30078125 122.921875Q55.63671875 120.7734375 54.66015625 117.375Q53.68359375 113.9765625 52.609375 109.93359375Q51.53515625 105.890625 50.55859375 101.7890625Q50.63671875 105.6171875 50.75390625 109.6796875Q50.87109375 113.7421875 50.96875 117.23828125Q51.06640625 120.734375 51.06640625 122.921875V148.0Z M109.70703125 148.0V89.796875H123.49609375V112.6484375H146.73828125V89.796875H160.48828125V148.0H146.73828125V123.8984375H123.49609375V148.0Z M166.58984375 148.0V89.796875H180.37890625V136.75H204.71484375V148.0Z" fill="#0E1116"></path></g>
  <g transform="translate(280,0)"><path d="M3.59375 140.0V105.0625H13.625L14.125 112.0Q15.5625 108.0625 18.296875 106.328125Q21.03125 104.59375 24.1875 104.59375Q27.5 104.59375 29.703125 106.5Q31.90625 108.40625 33.1875 112.6875Q34.78125 108.375 37.890625 106.484375Q41.0 104.59375 44.53125 104.59375Q49.4375 104.59375 52.578125 107.75Q55.71875 110.90625 55.71875 116.4375V140.0H44.8125V118.90625Q44.8125 116.25 43.4375 114.875Q42.0625 113.5 39.90625 113.5Q37.59375 113.5 36.25 115.015625Q34.90625 116.53125 34.90625 119.03125V140.0H24.4375V118.75Q24.4375 116.34375 23.078125 114.921875Q21.71875 113.5 19.5625 113.5Q17.34375 113.5 15.921875 115.0Q14.5 116.5 14.5 119.25V140.0Z M71.84375 120.0625V140.0H60.9375V93.4375H71.625V112.0Q73.03125 108.625 75.640625 106.625Q78.25 104.625 82.3125 104.625Q87.78125 104.625 91.09375 108.21875Q94.40625 111.8125 94.40625 117.75V140.0H83.5V119.875Q83.5 116.9375 82.0 115.265625Q80.5 113.59375 77.8125 113.59375Q75.15625 113.59375 73.5 115.296875Q71.84375 117.0 71.84375 120.0625Z M110.5 93.4375V140.0H99.59375V93.4375Z M115.03125 132.21875V123.59375L134.15625 93.4375H148.0625V123.5H153.65625V132.21875H148.0625V140.0H137.46875V132.21875ZM137.71875 123.5V105.1875H137.34375L126.0 123.125V123.5Z M157.65625 140.0V132.09375L174.59375 117.125Q177.46875 114.5 179.078125 112.421875Q180.6875 110.34375 180.6875 107.6875Q180.6875 104.78125 178.8125 103.125Q176.9375 101.46875 174.0625 101.46875Q171.09375 101.46875 169.3125 103.21875Q167.53125 104.96875 167.53125 108.15625H157.03125Q157.03125 103.4375 159.171875 100.0Q161.3125 96.5625 165.15625 94.6875Q169.0 92.8125 174.09375 92.8125Q179.34375 92.8125 183.234375 94.578125Q187.125 96.34375 189.25 99.515625Q191.375 102.6875 191.375 106.84375Q191.375 109.5 190.328125 112.09375Q189.28125 114.6875 186.53125 117.859375Q183.78125 121.03125 178.75 125.40625L172.96875 130.78125V131.09375H191.96875V140.0Z" fill="#0E1116"></path>
  <circle cx="201.40" cy="133.60" r="4.48" fill="#F5C518"></circle>
  <path d="M228.855 140.625Q223.82375 140.625 220.589375 138.0625Q217.355 135.5 217.355 130.3125Q217.355 126.4375 219.13625 124.15625Q220.9175 121.875 223.870625 120.78125Q226.82375 119.6875 230.355 119.375Q234.7925 119.0 236.714375 118.453125Q238.63625 117.90625 238.63625 116.28125V116.15625Q238.63625 114.34375 237.370625 113.359375Q236.105 112.375 233.88625 112.375Q231.605 112.375 230.13625 113.34375Q228.6675 114.3125 228.23 115.96875L218.355 114.6875Q219.38625 110.21875 223.401875 107.421875Q227.4175 104.625 233.98 104.625Q238.32375 104.625 241.839375 105.96875Q245.355 107.3125 247.433125 109.921875Q249.51125 112.53125 249.51125 116.28125V140.0H239.26125V135.09375H238.98Q236.07375 140.625 228.855 140.625ZM232.1675 133.40625Q234.9175 133.40625 236.82375 131.78125Q238.73 130.15625 238.73 127.5625V124.21875Q237.7925 124.71875 236.01125 125.0625Q234.23 125.40625 232.69875 125.65625Q227.6675 126.40625 227.6675 129.8125Q227.6675 131.5625 228.933125 132.484375Q230.19875 133.40625 232.1675 133.40625Z M254.73 140.0V105.0625H265.63625V140.0ZM260.1675 100.96875Q257.855 100.96875 256.19875 99.4375Q254.5425 97.90625 254.5425 95.71875Q254.5425 93.53125 256.19875 92.0Q257.855 90.46875 260.1675 90.46875Q262.51125 90.46875 264.1675 92.0Q265.82375 93.53125 265.82375 95.71875Q265.82375 97.90625 264.1675 99.4375Q262.51125 100.96875 260.1675 100.96875Z" fill="#0E1116"></path>
  <path d="M5.1279296875 170.0V159.814453125H7.4248046875L9.646484375 165.6591796875Q9.7490234375 165.9326171875 9.87890625 166.36669921875Q10.0087890625 166.80078125 10.1455078125 167.2998046875Q10.2822265625 167.798828125 10.3984375 168.263671875Q10.521484375 167.8125 10.658203125 167.3134765625Q10.794921875 166.814453125 10.9248046875 166.376953125Q11.0546875 165.939453125 11.1572265625 165.6591796875L13.3447265625 159.814453125H15.6552734375V170.0H14.103515625V164.517578125Q14.103515625 163.95703125 14.12060546875 163.07177734375Q14.1376953125 162.1865234375 14.158203125 161.33203125Q13.98046875 161.9541015625 13.7890625 162.5625Q13.59765625 163.1708984375 13.4267578125 163.68701171875Q13.255859375 164.203125 13.1396484375 164.517578125L11.0546875 170.0H9.7216796875L7.609375 164.517578125Q7.431640625 164.0595703125 7.15478515625 163.1845703125Q6.8779296875 162.3095703125 6.583984375 161.3662109375Q6.59765625 161.8994140625 6.611328125 162.48046875Q6.625 163.0615234375 6.63525390625 163.5947265625Q6.6455078125 164.1279296875 6.6455078125 164.517578125V170.0Z M25.1494140625 170.13671875Q23.830078125 170.13671875 22.78759765625 169.5078125Q21.7451171875 168.87890625 21.14697265625 167.7099609375Q20.548828125 166.541015625 20.548828125 164.9140625Q20.548828125 163.2802734375 21.14697265625 162.10791015625Q21.7451171875 160.935546875 22.78759765625 160.306640625Q23.830078125 159.677734375 25.1494140625 159.677734375Q26.46875 159.677734375 27.50439453125 160.306640625Q28.5400390625 160.935546875 29.13818359375 162.10791015625Q29.736328125 163.2802734375 29.736328125 164.9140625Q29.736328125 166.541015625 29.13818359375 167.71337890625Q28.5400390625 168.8857421875 27.50439453125 169.51123046875Q26.46875 170.13671875 25.1494140625 170.13671875ZM25.1494140625 168.71484375Q26.017578125 168.71484375 26.70458984375 168.27734375Q27.3916015625 167.83984375 27.79150390625 166.9921875Q28.19140625 166.14453125 28.19140625 164.9140625Q28.19140625 163.6767578125 27.79150390625 162.82568359375Q27.3916015625 161.974609375 26.70458984375 161.537109375Q26.017578125 161.099609375 25.1494140625 161.099609375Q24.2744140625 161.099609375 23.583984375 161.537109375Q22.8935546875 161.974609375 22.49365234375 162.82568359375Q22.09375 163.6767578125 22.09375 164.9140625Q22.09375 166.14453125 22.49365234375 166.9921875Q22.8935546875 167.83984375 23.583984375 168.27734375Q24.2744140625 168.71484375 25.1494140625 168.71484375Z M38.0546875 170.1708984375Q36.3388671875 170.1708984375 35.3203125 169.36767578125Q34.3017578125 168.564453125 34.2333984375 167.169921875H35.798828125Q35.8671875 168.00390625 36.5166015625 168.40380859375Q37.166015625 168.8037109375 38.0478515625 168.8037109375Q39.0185546875 168.8037109375 39.654296875 168.3525390625Q40.2900390625 167.9013671875 40.2900390625 167.1630859375Q40.2900390625 166.5 39.73291015625 166.17529296875Q39.17578125 165.8505859375 38.35546875 165.6318359375L37.166015625 165.3037109375Q35.9150390625 164.96875 35.21435546875 164.3125Q34.513671875 163.65625 34.513671875 162.6103515625Q34.513671875 161.728515625 34.98876953125 161.06884765625Q35.4638671875 160.4091796875 36.28076171875 160.04345703125Q37.09765625 159.677734375 38.123046875 159.677734375Q39.1689453125 159.677734375 39.96533203125 160.04345703125Q40.76171875 160.4091796875 41.21630859375 161.04833984375Q41.6708984375 161.6875 41.69140625 162.494140625H40.173828125Q40.0986328125 161.796875 39.52783203125 161.4140625Q38.95703125 161.03125 38.0888671875 161.03125Q37.166015625 161.03125 36.619140625 161.45166015625Q36.072265625 161.8720703125 36.072265625 162.521484375Q36.072265625 163.0068359375 36.3662109375 163.30419921875Q36.66015625 163.6015625 37.08740234375 163.77587890625Q37.5146484375 163.9501953125 37.904296875 164.052734375L38.8955078125 164.3125Q39.380859375 164.435546875 39.89697265625 164.64404296875Q40.4130859375 164.8525390625 40.8505859375 165.18408203125Q41.2880859375 165.515625 41.55810546875 166.00439453125Q41.828125 166.4931640625 41.828125 167.18359375Q41.828125 168.044921875 41.3837890625 168.7216796875Q40.939453125 169.3984375 40.09521484375 169.78466796875Q39.2509765625 170.1708984375 38.0546875 170.1708984375Z M46.16796875 161.154296875V159.814453125H54.0771484375V161.154296875H50.912109375V170.0H49.3466796875V161.154296875Z M58.8203125 170.0V159.814453125H60.37890625V168.66015625H64.9931640625V170.0Z M72.7099609375 170.0V165.9462890625L68.95703125 159.814453125H70.775390625L72.689453125 163.0615234375Q72.9287109375 163.46484375 73.12353515625 163.83056640625Q73.318359375 164.1962890625 73.5029296875 164.6474609375Q73.6943359375 164.1826171875 73.8857421875 163.81689453125Q74.0771484375 163.451171875 74.302734375 163.0615234375L76.1962890625 159.814453125H78.0078125L74.2685546875 165.9462890625V170.0Z M89.216796875 170.0V159.814453125H90.775390625V164.12109375H95.8203125V159.814453125H97.3857421875V170.0H95.8203125V165.4609375H90.775390625V170.0Z M101.8623046875 170.0 105.4853515625 159.814453125H107.3994140625L111.0908203125 170.0H109.40234375L108.4658203125 167.3134765625H104.4599609375L103.55078125 170.0ZM104.904296875 166.0146484375H108.0078125L107.419921875 164.3330078125Q107.21484375 163.724609375 106.9755859375 162.92138671875Q106.736328125 162.1181640625 106.435546875 161.0380859375Q106.134765625 162.1318359375 105.89892578125 162.94189453125Q105.6630859375 163.751953125 105.4716796875 164.3330078125Z M115.5673828125 170.0V159.814453125H119.2177734375Q120.3935546875 159.814453125 121.1796875 160.224609375Q121.9658203125 160.634765625 122.35546875 161.35595703125Q122.7451171875 162.0771484375 122.7451171875 163.013671875Q122.7451171875 164.0390625 122.2802734375 164.78759765625Q121.8154296875 165.5361328125 120.8857421875 165.884765625L123.1279296875 170.0H121.357421875L119.29296875 166.1513671875Q119.251953125 166.1513671875 119.2041015625 166.1513671875H117.1259765625V170.0ZM117.1259765625 164.818359375H119.0537109375Q120.1748046875 164.818359375 120.67041015625 164.34326171875Q121.166015625 163.8681640625 121.166015625 163.013671875Q121.166015625 162.15234375 120.6669921875 161.64990234375Q120.16796875 161.1474609375 119.0400390625 161.1474609375H117.1259765625Z M127.638671875 170.0V159.814453125H129.935546875L132.1572265625 165.6591796875Q132.259765625 165.9326171875 132.3896484375 166.36669921875Q132.51953125 166.80078125 132.65625 167.2998046875Q132.79296875 167.798828125 132.9091796875 168.263671875Q133.0322265625 167.8125 133.1689453125 167.3134765625Q133.3056640625 166.814453125 133.435546875 166.376953125Q133.5654296875 165.939453125 133.66796875 165.6591796875L135.85546875 159.814453125H138.166015625V170.0H136.6142578125V164.517578125Q136.6142578125 163.95703125 136.63134765625 163.07177734375Q136.6484375 162.1865234375 136.6689453125 161.33203125Q136.4912109375 161.9541015625 136.2998046875 162.5625Q136.1083984375 163.1708984375 135.9375 163.68701171875Q135.7666015625 164.203125 135.650390625 164.517578125L133.5654296875 170.0H132.232421875L130.1201171875 164.517578125Q129.9423828125 164.0595703125 129.66552734375 163.1845703125Q129.388671875 162.3095703125 129.0947265625 161.3662109375Q129.1083984375 161.8994140625 129.1220703125 162.48046875Q129.1357421875 163.0615234375 129.14599609375 163.5947265625Q129.15625 164.1279296875 129.15625 164.517578125V170.0Z M143.4150390625 170.0V159.814453125H144.9736328125V168.66015625H149.587890625V170.0Z M154.3310546875 170.0V159.814453125H160.7431640625V161.154296875H155.8896484375V164.189453125H160.4013671875V165.5224609375H155.8896484375V168.66015625H160.7841796875V170.0Z M169.19140625 170.1708984375Q167.4755859375 170.1708984375 166.45703125 169.36767578125Q165.4384765625 168.564453125 165.3701171875 167.169921875H166.935546875Q167.00390625 168.00390625 167.6533203125 168.40380859375Q168.302734375 168.8037109375 169.1845703125 168.8037109375Q170.1552734375 168.8037109375 170.791015625 168.3525390625Q171.4267578125 167.9013671875 171.4267578125 167.1630859375Q171.4267578125 166.5 170.86962890625 166.17529296875Q170.3125 165.8505859375 169.4921875 165.6318359375L168.302734375 165.3037109375Q167.0517578125 164.96875 166.35107421875 164.3125Q165.650390625 163.65625 165.650390625 162.6103515625Q165.650390625 161.728515625 166.12548828125 161.06884765625Q166.6005859375 160.4091796875 167.41748046875 160.04345703125Q168.234375 159.677734375 169.259765625 159.677734375Q170.3056640625 159.677734375 171.10205078125 160.04345703125Q171.8984375 160.4091796875 172.35302734375 161.04833984375Q172.8076171875 161.6875 172.828125 162.494140625H171.310546875Q171.2353515625 161.796875 170.66455078125 161.4140625Q170.09375 161.03125 169.2255859375 161.03125Q168.302734375 161.03125 167.755859375 161.45166015625Q167.208984375 161.8720703125 167.208984375 162.521484375Q167.208984375 163.0068359375 167.5029296875 163.30419921875Q167.796875 163.6015625 168.22412109375 163.77587890625Q168.6513671875 163.9501953125 169.041015625 164.052734375L170.0322265625 164.3125Q170.517578125 164.435546875 171.03369140625 164.64404296875Q171.5498046875 164.8525390625 171.9873046875 165.18408203125Q172.4248046875 165.515625 172.69482421875 166.00439453125Q172.96484375 166.4931640625 172.96484375 167.18359375Q172.96484375 168.044921875 172.5205078125 168.7216796875Q172.076171875 169.3984375 171.23193359375 169.78466796875Q170.3876953125 170.1708984375 169.19140625 170.1708984375Z M181.2353515625 170.1708984375Q179.51953125 170.1708984375 178.5009765625 169.36767578125Q177.482421875 168.564453125 177.4140625 167.169921875H178.9794921875Q179.0478515625 168.00390625 179.697265625 168.40380859375Q180.3466796875 168.8037109375 181.228515625 168.8037109375Q182.19921875 168.8037109375 182.8349609375 168.3525390625Q183.470703125 167.9013671875 183.470703125 167.1630859375Q183.470703125 166.5 182.91357421875 166.17529296875Q182.3564453125 165.8505859375 181.5361328125 165.6318359375L180.3466796875 165.3037109375Q179.095703125 164.96875 178.39501953125 164.3125Q177.6943359375 163.65625 177.6943359375 162.6103515625Q177.6943359375 161.728515625 178.16943359375 161.06884765625Q178.64453125 160.4091796875 179.46142578125 160.04345703125Q180.2783203125 159.677734375 181.3037109375 159.677734375Q182.349609375 159.677734375 183.14599609375 160.04345703125Q183.9423828125 160.4091796875 184.39697265625 161.04833984375Q184.8515625 161.6875 184.8720703125 162.494140625H183.3544921875Q183.279296875 161.796875 182.70849609375 161.4140625Q182.1376953125 161.03125 181.26953125 161.03125Q180.3466796875 161.03125 179.7998046875 161.45166015625Q179.2529296875 161.8720703125 179.2529296875 162.521484375Q179.2529296875 163.0068359375 179.546875 163.30419921875Q179.8408203125 163.6015625 180.26806640625 163.77587890625Q180.6953125 163.9501953125 181.0849609375 164.052734375L182.076171875 164.3125Q182.5615234375 164.435546875 183.07763671875 164.64404296875Q183.59375 164.8525390625 184.03125 165.18408203125Q184.46875 165.515625 184.73876953125 166.00439453125Q185.0087890625 166.4931640625 185.0087890625 167.18359375Q185.0087890625 168.044921875 184.564453125 168.7216796875Q184.1201171875 169.3984375 183.27587890625 169.78466796875Q182.431640625 170.1708984375 181.2353515625 170.1708984375Z" fill="#0E1116"></path></g>
</svg>