<?xml version="1.0" encoding="UTF-8"?>
<svg xmlns="http://www.w3.org/2000/svg" viewBox="0 0 240 240" preserveAspectRatio="xMidYMid meet">

  <rect x="20" y="20" width="200" height="200" rx="20" fill="none" stroke="#0E1116" stroke-width="6"></rect>
  <path d="M41.380859375 60.376953125V57.08203125L49.8984375 43.62890625H55.134765625V57.013671875H57.677734375V60.376953125H55.134765625V64.0H51.12890625V60.376953125ZM51.2109375 57.013671875V48.22265625H51.046875L45.591796875 56.849609375V57.013671875Z M60.130859375 64.0V60.9921875L67.349609375 54.224609375Q68.73046875 52.87109375 69.4755859375 51.8662109375Q70.220703125 50.861328125 70.220703125 49.630859375Q70.220703125 48.263671875 69.3251953125 47.4775390625Q68.4296875 46.69140625 67.0625 46.69140625Q65.640625 46.69140625 64.7861328125 47.5390625Q63.931640625 48.38671875 63.931640625 49.876953125H59.939453125Q59.939453125 47.89453125 60.8486328125 46.4248046875Q61.7578125 44.955078125 63.37109375 44.1552734375Q64.984375 43.35546875 67.08984375 43.35546875Q69.25 43.35546875 70.86328125 44.1279296875Q72.4765625 44.900390625 73.3720703125 46.25390625Q74.267578125 47.607421875 74.267578125 49.37109375Q74.267578125 50.505859375 73.8232421875 51.61328125Q73.37890625 52.720703125 72.2373046875 54.0947265625Q71.095703125 55.46875 69.00390625 57.3828125L65.927734375 60.41796875V60.568359375H74.541015625V64.0Z" fill="#0E1116"></path>
  <circle cx="200" cy="48" r="6" fill="#F5C518"></circle>
  <path d="M37.23828125 148.0V89.796875H58.72265625L66.14453125 112.453125Q66.73046875 114.4453125 67.4921875 117.6484375Q68.25390625 120.8515625 69.03515625 124.5625Q69.81640625 128.2734375 70.51953125 131.75Q71.18359375 128.2734375 71.9453125 124.58203125Q72.70703125 120.890625 73.46875 117.66796875Q74.23046875 114.4453125 74.81640625 112.453125L82.12109375 89.796875H103.64453125V148.0H89.77734375V122.921875Q89.77734375 120.6953125 89.875 117.08203125Q89.97265625 113.46875 90.08984375 109.25Q90.20703125 105.03125 90.28515625 101.125Q89.30859375 105.265625 88.234375 109.4453125Q87.16015625 113.625 86.18359375 117.16015625Q85.20703125 120.6953125 84.50390625 122.921875L76.22265625 148.0H64.69921875L56.30078125 122.921875Q55.63671875 120.7734375 54.66015625 117.375Q53.68359375 113.9765625 52.609375 109.93359375Q51.53515625 105.890625 50.55859375 101.7890625Q50.63671875 105.6171875 50.75390625 109.6796875Q50.87109375 113.7421875 50.96875 117.23828125Q51.06640625 120.734375 51.06640625 122.921875V148.0Z M109.70703125 148.0V89.796875H123.49609375V112.6484375H146.73828125V89.796875H160.48828125V148.0H146.73828125V123.8984375H123.49609375V148.0Z M166.58984375 148.0V89.796875H180.37890625V136.75H204.71484375V148.0Z" fill="#0E1116"></path>
</svg>